# xmcd
# 
# Track frame offsets:
#     151
#     17024
#     30314
#     48565
#     64488
#     78113
#     93257
#     106714
#     122659
#     142943
#     163309
# 
# Disc length: 2479
# 
# Revision: 1
# Processed by: cddbd v1.5.2PL0 Copyright (c) Steve Scherf et al.
# Submitted via: BonkEnc v1.0.8
# 
DISCID=8309ad0b
DTITLE=La Bodeguita del Medio - La B del M - Volumen I
DYEAR=0
DGENRE=Salsa
TTITLE0=Hasta Siempre
TTITLE1=Guajira Guantanamera
TTITLE2=Yo soy el punto Cubano
TTITLE3=Son de la loma
TTITLE4=Bonito y Sabroso
TTITLE5=Veinte Años
TTITLE6=Lagrimas Negras
TTITLE7=Santa Barbara
TTITLE8=Chan Chan
TTITLE9=Yolanda
TTITLE10=Tras tus pies
EXTD=
EXTT0=
EXTT1=
EXTT2=
EXTT3=
EXTT4=
EXTT5=
EXTT6=
EXTT7=
EXTT8=
EXTT9=
EXTT10=
PLAYORDER=
